<svg xmlns="http://www.w3.org/2000/svg" viewBox="0 0 335.73 370"><title>DUO_Icon_black_Alpha</title><g id="RIGHT"><path d="M268,124c60.75,0,110,89.25,110,150A110.1,110.1,0,0,1,248.52,382.28a75,75,0,0,1-42.25,28.47A150,150,0,1,0,268,124" transform="translate(-82.27 -54)"/><path d="M294.8,380.7a110.77,110.77,0,0,1-46.28,1.58h0c-.56.77-1.15,1.53-1.74,2.27l-.32.4c-.55.7-1.13,1.38-1.71,2.05l-.45.52c-.57.65-1.15,1.29-1.74,1.91-.17.18-.35.36-.52.55-.59.61-1.2,1.22-1.81,1.82l-.52.49c-.64.61-1.28,1.21-1.93,1.79l-.42.36A75.77,75.77,0,0,1,225,403.25l-.58.33c-.72.4-1.46.79-2.2,1.16l-.82.43c-.71.35-1.43.69-2.15,1l-.94.43c-.72.31-1.44.62-2.17.91l-1,.39c-.73.28-1.47.56-2.22.83l-.95.32q-1.16.39-2.34.75l-.77.22c-.86.25-1.71.49-2.58.71h0A149.43,149.43,0,0,0,264.39,424,115.17,115.17,0,0,0,294.8,380.7Z" transform="translate(-82.27 -54)"/><path d="M280,407a114.53,114.53,0,0,0,23-69H263a75,75,0,0,1-45.57,69Z" transform="translate(-82.27 -54)"/><rect x="180.73" y="75" width="40" height="209"/><path d="M268,124c-1.67,0-3.34,0-5,.09v40c1.66-.08,3.32-.12,5-.12a110,110,0,0,1,0,220c-1.68,0-3.34,0-5-.12v40c1.66,0,3.33.09,5,.09a150,150,0,0,0,0-300Z" transform="translate(-82.27 -54)"/></g><g id="LEFT"><path d="M232.27,354c-60.75,0-110-89.25-110-150A110.1,110.1,0,0,1,251.75,95.72,75,75,0,0,1,294,67.25,150,150,0,1,0,232.27,354" transform="translate(-82.27 -54)"/><path d="M205.46,97.3a110.81,110.81,0,0,1,46.29-1.58h0c.56-.77,1.14-1.53,1.74-2.27.1-.14.21-.27.31-.4.56-.7,1.13-1.38,1.71-2,.15-.17.3-.35.46-.52.57-.65,1.15-1.29,1.74-1.91l.52-.55c.59-.61,1.19-1.22,1.81-1.82l.52-.49c.63-.61,1.28-1.21,1.93-1.79l.42-.36a75.34,75.34,0,0,1,12.39-8.81l.58-.33c.72-.4,1.46-.79,2.19-1.16l.83-.43c.71-.35,1.43-.69,2.15-1l.94-.43c.72-.31,1.44-.62,2.17-.91l1-.39,2.23-.83.94-.32q1.17-.39,2.34-.75l.78-.22c.86-.25,1.71-.49,2.58-.71h0a149.47,149.47,0,0,0-58.12-13.2A115.31,115.31,0,0,0,205.46,97.3Z" transform="translate(-82.27 -54)"/><path d="M220.26,71a114.53,114.53,0,0,0-23,69h40a75,75,0,0,1,45.57-69Z" transform="translate(-82.27 -54)"/><rect x="197.27" y="140" width="40" height="209" transform="translate(352.27 435) rotate(180)"/><path d="M232.27,354c1.67,0,3.34,0,5-.09v-40c-1.66.08-3.33.12-5,.12a110,110,0,0,1,0-220c1.67,0,3.34,0,5,.12v-40c-1.66-.05-3.33-.09-5-.09a150,150,0,0,0,0,300Z" transform="translate(-82.27 -54)"/></g></svg>