<svg id="图层_1" data-name="图层 1" xmlns="http://www.w3.org/2000/svg" viewBox="0 0 322 125"><defs><style>.cls-1,.cls-2,.cls-4{fill:none;}.cls-2,.cls-4{stroke:#fff;stroke-width:8px;}.cls-3{isolation:isolate;}.cls-4{stroke-miterlimit:10;}</style></defs><title>DUO_white_Alpha</title><g id="MainApp-Mobile-App-Pro"><g id="Duo-Icon-TestPage"><g id="Group-2"><rect id="Rectangle-3" class="cls-1" width="322" height="125"/><g id="DUO-icon"><path id="Combined-Shape" class="cls-2" d="M41,6.68h-.8a27.52,27.52,0,0,0-4.63,54.61v-41A19.79,19.79,0,0,1,41,6.68Z" transform="translate(2.17 4.33)"/><path id="Combined-Shape-Copy-2" class="cls-2" d="M46.7,76.65l.8,0a27.52,27.52,0,0,0,4.63-54.62V63A19.78,19.78,0,0,1,46.7,76.65Z" transform="translate(2.17 4.33)"/></g><g id="DUO" class="cls-3"><circle class="cls-4" cx="285" cy="50.52" r="25"/><path class="cls-4" d="M107.83,21.19v50h25a25,25,0,1,0,0-50Z" transform="translate(2.17 4.33)"/><path class="cls-4" d="M232.83,17.05V46.19a25,25,0,0,1-50,0v-29" transform="translate(2.17 4.33)"/></g></g></g></g></svg>